<?xml version="1.0" encoding="utf-8"?>
<!-- Generator: Adobe Illustrator 23.0.4, SVG Export Plug-In . SVG Version: 6.00 Build 0)  -->
<svg version="1.1" xmlns="http://www.w3.org/2000/svg" xmlns:xlink="http://www.w3.org/1999/xlink" x="0px" y="0px"
	 viewBox="0 0 243.4 380.8" style="enable-background:new 0 0 243.4 380.8;" xml:space="preserve">
<g id="Layer_1">
</g>
<g id="Layer_2">
	<path style="fill:#5AB950;" d="M72,380H12c-6.6,0-12-5.4-12-12V12C0,5.4,5.4,0,12,0h60c6.6,0,12,5.4,12,12v356
		C84,374.6,78.6,380,72,380z"/>
	<path style="fill:#5AB950;" d="M231,380h-60c-6.6,0-12-5.4-12-12V12c0-6.6,5.4-12,12-12h60c6.6,0,12,5.4,12,12v356
		C243,374.6,237.6,380,231,380z"/>
</g>
</svg>
